# xmcd
#
# Track frame offsets:
#	150
#	16815
#	33892
#	48960
#	67955
#	84247
#	106635
#	127027
#	153610
#	171267
#	183707
#
# Disc length: 2741 seconds
#
# Revision: 0
# Processed by: cddbd v1.4PL0 Copyright (c) Steve Scherf et al.
# Submitted via: dBpowerAMP V4.0
#
DISCID=820ab30b
DTITLE=Jimmy McCracklin - A Taste Of The Blues
DYEAR=1994
DGENRE=blues
TTITLE0=Boogie On Down
TTITLE1=Lie To Me
TTITLE2=How Do You Like Your New Love
TTITLE3=Any Answer
TTITLE4=Help The Bear
TTITLE5=Yesterday Is Gone
TTITLE6=I Got Juiced
TTITLE7=Put Up Or Shut Up
TTITLE8=Not The Right Thing
TTITLE9=Outside Help
TTITLE10=Taste Of The Blues
EXTD=
EXTT0=
EXTT1=
EXTT2=
EXTT3=
EXTT4=
EXTT5=
EXTT6=
EXTT7=
EXTT8=
EXTT9=
EXTT10=
PLAYORDER=
